<svg width="72" height="72" viewBox="0 0 72 72" fill="none" xmlns="http://www.w3.org/2000/svg">
<rect width="72" height="72" rx="16" fill="white"/>
<path d="M41.3508 47.7712C38.186 51.0381 33.8267 51.0269 30.6711 47.7456C27.4414 51.4336 22.7932 50.9067 20 46.718V48.5625C20 50.458 21.542 52 23.4375 52H48.562C50.4575 52 51.9993 50.458 51.9993 48.5625V46.718C49.1824 50.9436 44.5479 51.3928 41.3508 47.7712V47.7712Z" fill="#583FBC"/>
<path d="M25.7295 48.3381C27.2022 48.3381 28.4939 47.4736 29.4759 46.2524C27.7022 43.5977 26.8999 39.8132 28.9678 37.3806C27.9327 37.0276 26.7183 36.9756 25.7295 36.9756C24.5523 36.9756 23.0552 37.0488 21.9209 37.6174C20.4383 38.3611 19.8841 39.7803 20.0198 41.4331C20.251 44.3757 22.5772 48.3381 25.7295 48.3381V48.3381Z" fill="#583FBC"/>
<path d="M50.0791 37.6174C48.9446 37.0488 47.4478 36.9756 46.2703 36.9756C45.2935 36.9756 44.0959 37.0264 43.0691 37.3682C45.1514 39.8005 44.3533 43.6064 42.5498 46.2844C43.5291 47.4888 44.811 48.3381 46.2703 48.3381C49.5942 48.3381 51.9995 43.9326 51.9995 40.9624C51.9995 38.9937 50.9553 38.0569 50.0791 37.6174V37.6174Z" fill="#583FBC"/>
<path d="M29.6152 40.9626C29.6152 44.0583 32.4185 48.3381 36.0239 48.3381C39.6289 48.3381 42.4326 44.0588 42.4326 40.9626C42.4326 36.9756 37.9417 36.9756 36.0239 36.9756C34.1062 36.9756 29.6152 36.9756 29.6152 40.9626V40.9626Z" fill="#583FBC"/>
<path d="M48.5623 20H23.4377C21.5422 20 20.0005 21.542 20.0005 23.4375V25.282C22.8281 21.0398 27.4646 20.6213 30.6489 24.2288C33.8137 20.9619 38.1731 20.9731 41.3286 24.2544C44.4802 20.6558 49.1404 20.991 51.9995 25.282V23.4375C51.9995 21.542 50.4578 20 48.5623 20V20Z" fill="#583FBC"/>
<path d="M25.7292 23.6619C22.4053 23.6619 20 28.0674 20 31.0376C20 33.0063 21.0444 33.9431 21.9207 34.3826C23.0549 34.9512 24.5518 35.0244 25.7292 35.0244C26.7068 35.0244 27.9036 34.9736 28.9304 34.6318C26.8484 32.1995 27.6465 28.3936 29.45 25.7156C28.4705 24.5112 27.1887 23.6619 25.7292 23.6619Z" fill="#583FBC"/>
<path d="M46.2703 23.6619C44.7979 23.6619 43.5061 24.5264 42.5234 25.7476C44.2981 28.4036 45.1001 32.1868 43.0322 34.6194C44.0674 34.9724 45.2815 35.0244 46.2703 35.0244C47.4478 35.0244 48.9446 34.9512 50.0791 34.3826C51.5618 33.6389 52.1157 32.22 51.9802 30.5669C51.749 27.6243 49.4229 23.6619 46.2703 23.6619V23.6619Z" fill="#583FBC"/>
<path d="M35.9761 23.6619C32.3882 23.6619 29.5674 27.9226 29.5674 31.0374C29.5674 35.0244 34.0586 35.0244 35.9761 35.0244C37.8938 35.0244 42.3848 35.0244 42.3848 31.0374C42.385 27.9211 39.5632 23.6619 35.9761 23.6619Z" fill="#583FBC"/>
</svg>
