<svg width="72" height="72" viewBox="0 0 72 72" fill="none" xmlns="http://www.w3.org/2000/svg">
<rect width="72" height="72" rx="16" fill="white"/>
<g clip-path="url(#clip0_704_307)">
<path d="M40.6087 38.8281C40.1729 36.6825 38.272 35.0625 35.9996 35.0625C33.7273 35.0625 31.8264 36.6824 31.3906 38.8281H40.6087Z" fill="#583FBC"/>
<path d="M44.1472 40.7031H27.0847C26.4915 40.7031 26.0476 41.2472 26.1663 41.8284C26.2296 42.1385 26.2911 42.4349 26.342 42.6703L26.4125 42.9971C27.1068 46.2153 27.5656 48.3413 28.2313 49.7161C28.9963 51.2956 30.1116 52 31.8478 52C32.5601 52 33.5889 51.9177 34.2952 51.2061C35.2066 50.2877 35.1958 48.8483 35.1778 46.4637C35.1751 46.1007 35.1722 45.7256 35.1721 45.3213C35.172 44.8758 35.5136 44.4914 35.9586 44.4697C36.4334 44.4467 36.8271 44.8264 36.8271 45.2962C36.8271 45.7102 36.8242 46.0933 36.8214 46.4637C36.8034 48.8484 36.7926 50.2877 37.7041 51.2061C38.4104 51.9177 39.4391 52 40.1515 52C41.8876 52 43.003 51.2956 43.7679 49.7161C44.4337 48.3413 44.8924 46.2153 45.5868 42.9971L45.6572 42.6706C45.7081 42.4351 45.7696 42.1386 45.8329 41.8284C45.9516 41.2472 45.5077 40.7031 44.9144 40.7031H44.1472Z" fill="#583FBC"/>
<path d="M26.7521 33.1719H45.2476C45.6055 33.1719 45.9321 32.9682 46.0896 32.6468C46.902 30.9885 47.3018 29.1413 47.3121 26.9995V26.9995C47.321 25.1074 46.5875 23.3302 45.247 21.9955C43.9381 20.6924 42.2117 19.9854 40.3835 20.0003C39.3405 20.0094 38.3393 20.2473 37.4081 20.7075C36.5132 21.1497 35.4866 21.1497 34.5916 20.7075C33.6603 20.2474 32.6593 20.0094 31.6165 20.0004C29.7871 19.9837 28.0616 20.6925 26.7528 21.9956C25.4123 23.3303 24.6788 25.1074 24.6877 26.9996C24.698 29.1414 25.0978 30.9885 25.9102 32.6469C26.0676 32.9682 26.3942 33.1719 26.7521 33.1719V33.1719Z" fill="#583FBC"/>
</g>
<defs>
<clipPath id="clip0_704_307">
<rect width="32" height="32" fill="white" transform="translate(20 20)"/>
</clipPath>
</defs>
</svg>
