<svg width="98" height="98" viewBox="0 0 98 98" fill="none" xmlns="http://www.w3.org/2000/svg">
<rect x="1" y="1" width="96" height="96" rx="16" fill="white" fill-opacity="0.2" stroke="url(#paint0_linear_401_267)"/>
<rect x="13" y="13" width="72" height="72" rx="16" fill="white"/>
<g clip-path="url(#clip0_401_267)">
<path d="M54.2682 47.582C55.5239 45.8945 56.1875 43.8907 56.1875 41.7873V36.4375C56.1875 35.9197 55.7677 35.5 55.25 35.5C54.0654 35.5 53.0003 34.8417 52.4704 33.7822L52.3385 33.5182C52.1797 33.2006 51.8551 33 51.5 33H46.5C46.1449 33 45.8203 33.2006 45.6615 33.5182L45.5296 33.7822C44.9997 34.8417 43.9346 35.5 42.75 35.5C42.2322 35.5 41.8125 35.9197 41.8125 36.4375V41.7873C41.8125 43.8907 42.4761 45.8945 43.7317 47.5821C44.9874 49.2696 46.7159 50.4811 48.7306 51.0855C48.8184 51.1119 48.9092 51.1251 49 51.1251C49.0908 51.1251 49.1815 51.1119 49.2694 51.0855C51.2841 50.4811 53.0126 49.2696 54.2682 47.582ZM52.3146 40.9576L48.779 44.4931C48.5959 44.6762 48.3559 44.7677 48.1161 44.7677C47.8762 44.7677 47.6363 44.6762 47.4532 44.4931L45.6855 42.7254C45.3194 42.3593 45.3194 41.7657 45.6855 41.3996C46.0516 41.0335 46.6452 41.0335 47.0113 41.3996L48.1162 42.5044L50.9889 39.6318C51.3549 39.2657 51.9486 39.2657 52.3147 39.6318C52.6807 39.9979 52.6807 40.5916 52.3146 40.9576Z" fill="#583FBC"/>
<path d="M63.0723 41.5632C62.051 41.5913 61.25 42.4548 61.25 43.4765V51.25L57.7064 57.3432C57.5374 57.6338 57.2266 57.8126 56.8904 57.8126C56.1628 57.8126 55.7088 57.0241 56.074 56.3947L58.5395 52.1467C59.1612 51.07 58.7922 49.6933 57.7155 49.0717C56.6829 48.4754 55.3644 48.7879 54.7092 49.7842L51.1765 55.1556C50.5729 56.0734 50.2512 57.1479 50.2512 58.2465V64.0626C50.2512 64.5803 50.671 65.0001 51.1887 65.0001H60.9375C61.4552 65.0001 61.875 64.5803 61.875 64.0626V60.6251L65 53.125V43.4375C65 42.3845 64.1319 41.5342 63.0723 41.5632Z" fill="#583FBC"/>
<path d="M43.2909 49.7842C42.6356 48.788 41.3172 48.4755 40.2845 49.0717C39.2078 49.6933 38.8389 51.07 39.4606 52.1467L41.9261 56.3947C42.2913 57.0241 41.8373 57.8125 41.1097 57.8126C40.7735 57.8126 40.4627 57.6337 40.2937 57.3432L36.75 51.25V43.4765C36.75 42.4548 35.949 41.5913 34.9277 41.5632C33.8681 41.5342 33 42.3845 33 43.4375V53.125L36.125 60.6251V64.0626C36.125 64.5803 36.5447 65.0001 37.0625 65.0001H46.8113C47.3291 65.0001 47.7488 64.5803 47.7488 64.0626V58.2465C47.7488 57.1479 47.4271 56.0734 46.8235 55.1556L43.2909 49.7842Z" fill="#583FBC"/>
</g>
<defs>
<linearGradient id="paint0_linear_401_267" x1="1" y1="1" x2="97" y2="97" gradientUnits="userSpaceOnUse">
<stop stop-color="white"/>
<stop offset="1" stop-color="white" stop-opacity="0"/>
</linearGradient>
<clipPath id="clip0_401_267">
<rect width="32" height="32" fill="white" transform="translate(33 33)"/>
</clipPath>
</defs>
</svg>
