<svg width="98" height="98" viewBox="0 0 98 98" fill="none" xmlns="http://www.w3.org/2000/svg">
<rect x="1" y="1" width="96" height="96" rx="16" fill="white" fill-opacity="0.2" stroke="url(#paint0_linear_401_278)"/>
<rect x="13" y="13" width="72" height="72" rx="16" fill="white"/>
<g clip-path="url(#clip0_401_278)">
<path d="M55.4418 36.8128C55.0588 36.8318 54.6877 36.6138 54.5302 36.241L53.9843 34.948C53.7831 34.4715 54.0075 33.9227 54.485 33.722C54.9626 33.5215 55.5126 33.7449 55.7138 34.2215L56.2597 35.5145C56.4609 35.991 56.2368 36.5398 55.759 36.7403C55.6555 36.784 55.548 36.8074 55.4418 36.8128Z" fill="#583FBC"/>
<path d="M59.2986 36.1076C59.1609 36.1144 59.0198 36.0912 58.8848 36.0336C58.408 35.831 58.186 35.2814 58.3892 34.8058L58.9436 33.507C59.1467 33.0314 59.6977 32.81 60.1746 33.0126C60.6514 33.215 60.8733 33.7648 60.6702 34.2404L60.1155 35.5392C59.97 35.8801 59.646 36.0903 59.2986 36.1076Z" fill="#583FBC"/>
<path d="M61.5187 39.2397C61.1325 39.259 60.7587 39.0369 60.6037 38.6597C60.4071 38.1811 60.6366 37.6345 61.1161 37.4385L62.446 36.8945C62.9254 36.6985 63.4735 36.9272 63.6701 37.4057C63.8666 37.884 63.6374 38.4307 63.1579 38.6267L61.8278 39.1706C61.7265 39.2122 61.6222 39.2344 61.5187 39.2397Z" fill="#583FBC"/>
<path d="M61.9534 43.9381C60.7844 40.8397 57.9434 38.8297 54.7151 38.8175C54.709 38.8175 54.7029 38.8175 54.6968 38.8175C53.0012 38.8175 51.7683 39.7125 50.6799 40.5023C49.853 41.1024 49.1382 41.6215 48.4036 41.6283C47.6692 41.6215 46.9541 41.1027 46.1274 40.5023C45.0391 39.7123 43.8061 38.8175 42.1106 38.8175C42.1045 38.8175 42.0984 38.8175 42.0923 38.8175C38.864 38.8297 36.0227 40.8397 34.8537 43.9381C33.5344 47.4359 34.8811 50.2064 36.1836 52.8859C36.3813 53.2929 36.5859 53.714 36.7773 54.1303C37.0791 54.7865 37.3745 55.9648 37.6872 57.2121C38.4223 60.1449 39.2556 63.4692 41.1157 64.5644C41.7502 64.9379 42.4712 65.0334 43.2007 64.8403C45.1299 64.33 45.7834 62.1393 46.3599 60.2065C46.9709 58.1584 47.4143 56.9108 48.4038 56.8991C49.3931 56.9108 49.8367 58.1584 50.4475 60.2065C51.0242 62.1393 51.6775 64.33 53.6067 64.8403C53.8523 64.9052 54.0969 64.9377 54.3377 64.9377C54.8118 64.9377 55.271 64.8122 55.6917 64.5644C57.5518 63.4689 58.3853 60.1449 59.1204 57.2121C59.4329 55.9648 59.7283 54.7865 60.0301 54.1303C60.2215 53.7138 60.4261 53.2929 60.624 52.8857C61.9263 50.2064 63.273 47.4359 61.9534 43.9381ZM42.1138 44.4335C41.216 44.4369 40.4719 44.9913 40.1228 45.9164C39.9812 46.2916 39.624 46.5228 39.2446 46.5228C39.1347 46.5228 39.0232 46.5036 38.9143 46.4625C38.4292 46.2804 38.1841 45.7406 38.3664 45.2567C38.9914 43.6007 40.4245 42.568 42.1067 42.5614H42.1103C42.6269 42.5614 43.0466 42.9782 43.0486 43.494C43.0505 44.0109 42.6321 44.4315 42.1138 44.4335Z" fill="#583FBC"/>
</g>
<defs>
<linearGradient id="paint0_linear_401_278" x1="1" y1="1" x2="97" y2="97" gradientUnits="userSpaceOnUse">
<stop stop-color="white"/>
<stop offset="1" stop-color="white" stop-opacity="0"/>
</linearGradient>
<clipPath id="clip0_401_278">
<rect width="32" height="32" fill="white" transform="translate(33 33)"/>
</clipPath>
</defs>
</svg>
