<svg width="72" height="72" viewBox="0 0 72 72" fill="none" xmlns="http://www.w3.org/2000/svg">
<rect width="72" height="72" rx="16" fill="white"/>
<g clip-path="url(#clip0_704_305)">
<path d="M50.6006 33.1243C50.0376 34.8152 49.7947 36.627 49.8955 38.4292C50.1748 43.5132 50.0647 47.3821 45.3167 50.5667C44.8513 50.8784 44.3098 51.0432 43.75 51.0432H39.6875C38.1367 51.0432 36.875 49.7815 36.875 48.2307V42.6641C36.875 42.134 36.4651 41.6609 35.9133 41.6667C35.4199 41.6765 35 42.105 35 42.6021V48.2307C35 49.7815 33.7383 51.0432 32.1875 51.0432H28.4375C27.9016 51.0432 27.3794 50.8911 26.9272 50.6033C21.9734 47.4497 21.6477 43.5786 21.9883 38.2854C22.0967 36.605 21.8713 34.8616 21.3352 33.1758C20.5195 33.8643 20 34.8933 20 36.0417V51.0432C20 51.561 20.4197 51.9807 20.9375 51.9807H51.0625C51.5803 51.9807 52 51.561 52 51.0432V36.0432C52 34.865 51.4531 33.8123 50.6006 33.1243V33.1243Z" fill="#583FBC"/>
<path d="M23.8595 38.4057C23.5384 43.395 23.8187 46.4016 27.9342 49.0217C28.2172 49.2016 28.4012 49.1682 29.1017 49.1682C28.5629 46.8935 27.5001 42.0088 27.5001 38.8557C27.5001 37.3369 27.9288 35.8296 28.7211 34.5195C28.7491 33.8982 28.7633 31.6596 27.6576 30.001C27.3705 29.57 27.4867 28.988 27.9176 28.7009C28.3483 28.4135 28.9305 28.53 29.2176 28.9609C29.7313 29.7312 30.0587 30.5749 30.2655 31.3772C30.798 30.0901 31.2501 28.6721 31.2501 27.6057C31.2501 27.0881 31.6698 26.6682 32.1876 26.6682C32.7054 26.6682 33.1251 27.0881 33.1251 27.6057C33.1251 28.7226 32.7772 30.0285 32.3324 31.2422C32.8116 31.0114 33.3116 30.8247 33.826 30.6897C34.3268 30.5588 34.8395 30.8581 34.9706 31.3589C35.1019 31.8598 34.8024 32.3723 34.3016 32.5034C31.4469 33.2519 29.3751 35.9233 29.3751 38.8557C29.3751 41.9961 30.5604 47.2185 31.0309 49.1682H32.1876C32.7054 49.1682 33.1251 48.7485 33.1251 48.2307V42.602C33.1251 41.083 34.3607 39.8225 35.8795 39.792C37.4645 39.7634 38.7501 41.072 38.7501 42.664V48.2307C38.7501 48.7485 39.1698 49.1682 39.6876 49.1682H40.8444C41.3148 47.218 42.5001 41.9936 42.5001 38.8557C42.5001 36.0219 40.6932 33.521 38.0135 32.6281C37.5223 32.4643 37.2567 31.9336 37.4205 31.4421C37.5841 30.9511 38.1151 30.6853 38.6063 30.8491C38.8483 30.9299 39.0841 31.0217 39.3146 31.122C39.0189 29.6557 39.4037 28.6438 39.861 28.0002C40.1608 27.5781 40.7462 27.4792 41.1683 27.779C41.5902 28.0788 41.6893 28.664 41.3895 29.0862C40.8846 29.7966 41.0751 30.8237 41.4869 31.7873C41.7482 31.2575 42.1024 30.6865 42.5809 30.1426C42.923 29.7539 43.5153 29.7158 43.9042 30.0578C44.2928 30.3999 44.3307 30.9922 43.9886 31.3811C43.1937 32.2849 42.8522 33.3049 42.7194 33.8315C43.8251 35.3257 44.3751 37.0888 44.3751 38.8557C44.3751 42.0088 43.3124 46.8935 42.7736 49.1682C43.7743 49.1682 43.9679 49.2136 44.2723 49.0093C46.1278 47.7649 47.1854 46.4219 47.7015 44.6543C48.9 40.5486 46.8307 36.989 49.3026 31.27C52.5145 23.8325 44.8973 17.2097 38.1505 21.2011C36.8048 21.9966 35.1329 21.9968 33.7875 21.2014C27.0802 17.2334 19.4777 23.7561 22.6 31.1863C23.5782 33.5173 24.0138 36.0136 23.8595 38.4057V38.4057Z" fill="#583FBC"/>
</g>
<defs>
<clipPath id="clip0_704_305">
<rect width="32" height="32" fill="white" transform="translate(20 20)"/>
</clipPath>
</defs>
</svg>
