<svg width="98" height="98" viewBox="0 0 98 98" fill="none" xmlns="http://www.w3.org/2000/svg">
<rect x="1" y="1" width="96" height="96" rx="16" fill="white" fill-opacity="0.2" stroke="url(#paint0_linear_401_245)"/>
<rect x="13" y="13" width="72" height="72" rx="16" fill="white"/>
<path fill-rule="evenodd" clip-rule="evenodd" d="M48.5468 65.5228C48.7313 65.6192 48.9377 65.6683 49.1441 65.6666C49.3505 65.665 49.5552 65.6143 49.7414 65.5163L55.6879 62.3375C57.3742 61.4386 58.6947 60.4335 59.7249 59.2633C61.9649 56.7137 63.1881 53.4597 63.1663 50.1044L63.0958 39.0367C63.0891 37.7619 62.2518 36.6244 61.0135 36.2109L49.9512 32.4993C49.285 32.2738 48.5552 32.2787 47.9008 32.5108L36.8804 36.3547C35.6488 36.7846 34.8266 37.9302 34.8333 39.2066L34.9038 50.2662C34.9256 53.6264 36.1907 56.8657 38.4676 59.3891C39.5079 60.543 40.8402 61.5334 42.5449 62.4176L48.5468 65.5228ZM46.9726 52.5149C47.221 52.7536 47.5431 52.8712 47.8653 52.868C48.1874 52.8663 48.5079 52.7454 48.7529 52.5035L55.2514 46.0969C55.7396 45.6148 55.7346 44.8401 55.2413 44.3645C54.7463 43.8889 53.9493 43.8922 53.4611 44.3743L47.8468 49.9082L45.5481 47.6985C45.0531 47.223 44.2578 47.2279 43.7678 47.71C43.2796 48.1921 43.2846 48.9668 43.7796 49.4424L46.9726 52.5149Z" fill="#583FBC"/>
<defs>
<linearGradient id="paint0_linear_401_245" x1="1" y1="1" x2="97" y2="97" gradientUnits="userSpaceOnUse">
<stop stop-color="white"/>
<stop offset="1" stop-color="white" stop-opacity="0"/>
</linearGradient>
</defs>
</svg>
