<svg width="152" height="24" viewBox="0 0 152 24" fill="none" xmlns="http://www.w3.org/2000/svg">
<path d="M11.1033 1.81699C11.4701 1.07374 12.5299 1.07374 12.8967 1.81699L15.294 6.67446C15.4397 6.9696 15.7213 7.17417 16.047 7.2215L21.4075 8.00043C22.2277 8.11961 22.5552 9.12759 21.9617 9.70612L18.0828 13.4871C17.8471 13.7169 17.7396 14.0479 17.7952 14.3723L18.7109 19.7111C18.851 20.528 17.9936 21.151 17.26 20.7653L12.4653 18.2446C12.174 18.0915 11.826 18.0915 11.5347 18.2446L6.74005 20.7653C6.00642 21.151 5.14899 20.528 5.2891 19.7111L6.20479 14.3723C6.26043 14.0479 6.15288 13.7169 5.91719 13.4871L2.03827 9.70612C1.44476 9.12759 1.77226 8.11961 2.59249 8.00043L7.95302 7.2215C8.27873 7.17417 8.5603 6.9696 8.70596 6.67446L11.1033 1.81699Z" fill="#FF8C4B"/>
<path d="M43.1033 1.81699C43.4701 1.07374 44.5299 1.07374 44.8967 1.81699L47.294 6.67446C47.4397 6.9696 47.7213 7.17417 48.047 7.2215L53.4075 8.00043C54.2277 8.11961 54.5552 9.12759 53.9617 9.70612L50.0828 13.4871C49.8471 13.7169 49.7396 14.0479 49.7952 14.3723L50.7109 19.7111C50.851 20.528 49.9936 21.151 49.26 20.7653L44.4653 18.2446C44.174 18.0915 43.826 18.0915 43.5347 18.2446L38.7401 20.7653C38.0064 21.151 37.149 20.528 37.2891 19.7111L38.2048 14.3723C38.2604 14.0479 38.1529 13.7169 37.9172 13.4871L34.0383 9.70612C33.4448 9.12759 33.7723 8.11961 34.5925 8.00043L39.953 7.2215C40.2787 7.17417 40.5603 6.9696 40.706 6.67446L43.1033 1.81699Z" fill="#FF8C4B"/>
<path d="M75.1033 1.81699C75.4701 1.07374 76.5299 1.07374 76.8967 1.81699L79.294 6.67446C79.4397 6.9696 79.7213 7.17417 80.047 7.2215L85.4075 8.00043C86.2277 8.11961 86.5552 9.12759 85.9617 9.70612L82.0828 13.4871C81.8471 13.7169 81.7396 14.0479 81.7952 14.3723L82.7109 19.7111C82.851 20.528 81.9936 21.151 81.26 20.7653L76.4653 18.2446C76.174 18.0915 75.826 18.0915 75.5347 18.2446L70.7401 20.7653C70.0064 21.151 69.149 20.528 69.2891 19.7111L70.2048 14.3723C70.2604 14.0479 70.1529 13.7169 69.9172 13.4871L66.0383 9.70612C65.4448 9.12759 65.7723 8.11961 66.5925 8.00043L71.953 7.2215C72.2787 7.17417 72.5603 6.9696 72.706 6.67446L75.1033 1.81699Z" fill="#FF8C4B"/>
<path d="M107.103 1.81699C107.47 1.07374 108.53 1.07374 108.897 1.81699L111.294 6.67446C111.44 6.9696 111.721 7.17417 112.047 7.2215L117.408 8.00043C118.228 8.11961 118.555 9.12759 117.962 9.70612L114.083 13.4871C113.847 13.7169 113.74 14.0479 113.795 14.3723L114.711 19.7111C114.851 20.528 113.994 21.151 113.26 20.7653L108.465 18.2446C108.174 18.0915 107.826 18.0915 107.535 18.2446L102.74 20.7653C102.006 21.151 101.149 20.528 101.289 19.7111L102.205 14.3723C102.26 14.0479 102.153 13.7169 101.917 13.4871L98.0383 9.70612C97.4448 9.12759 97.7723 8.11961 98.5925 8.00043L103.953 7.2215C104.279 7.17417 104.56 6.9696 104.706 6.67446L107.103 1.81699Z" fill="#FF8C4B"/>
<path d="M139.103 1.81699C139.47 1.07374 140.53 1.07374 140.897 1.81699L143.294 6.67446C143.44 6.9696 143.721 7.17417 144.047 7.2215L149.408 8.00043C150.228 8.11961 150.555 9.12759 149.962 9.70612L146.083 13.4871C145.847 13.7169 145.74 14.0479 145.795 14.3723L146.711 19.7111C146.851 20.528 145.994 21.151 145.26 20.7653L140.465 18.2446C140.174 18.0915 139.826 18.0915 139.535 18.2446L134.74 20.7653C134.006 21.151 133.149 20.528 133.289 19.7111L134.205 14.3723C134.26 14.0479 134.153 13.7169 133.917 13.4871L130.038 9.70612C129.445 9.12759 129.772 8.11961 130.592 8.00043L135.953 7.2215C136.279 7.17417 136.56 6.9696 136.706 6.67446L139.103 1.81699Z" fill="#FF8C4b"/>
</svg>
