<svg width="72" height="72" viewBox="0 0 72 72" fill="none" xmlns="http://www.w3.org/2000/svg">
<rect width="72" height="72" rx="16" fill="white"/>
<g clip-path="url(#clip0_704_304)">
<path d="M48.2906 51.8532C49.5289 50.3337 49.4147 47.3308 49.4135 47.2993C49.4129 46.1782 49.0952 44.8565 48.8294 43.9399C48.5317 42.9141 48.7254 41.8187 49.362 40.9341C49.4255 40.8462 49.4871 40.7558 49.546 40.6667C50.4003 39.3775 50.8512 37.8318 50.8512 36.1947V35.3003C50.8512 32.7431 47.2625 32.7025 47.1088 32.702C45.918 32.7026 44.7065 33.0637 43.7556 33.7917C43.6459 33.8757 43.539 33.9649 43.4168 34.03C43.3608 34.0597 43.3013 34.0849 43.2482 34.1197C43.0277 34.2637 42.8453 34.5214 42.6488 34.7003C42.4076 34.9191 42.1533 35.1254 41.8842 35.3094C41.3328 35.686 40.687 36.0015 40.0053 36.0015C39.6899 36.0015 39.4339 35.7461 39.4339 35.43C39.4339 35.114 39.6899 34.8586 40.0053 34.8586C40.7379 34.8586 41.6625 34.0826 42.1996 33.5403C41.9682 33.3968 41.6699 33.2363 41.3053 33.094C40.2195 32.6705 39.0092 32.6002 37.8766 32.8688C36.9652 33.0848 35.9863 33.5294 35.6154 34.4551C35.5171 34.7008 35.4606 34.9808 35.4606 35.3008V36.1956C35.4606 37.343 35.6857 38.4917 36.1503 39.5425C36.4543 40.2294 36.9326 40.8197 37.2583 41.4951C37.6275 42.2591 37.7195 43.1214 37.4818 43.9409C37.2155 44.8575 36.8984 46.1792 36.8984 47.2753C36.8966 47.3307 36.7829 50.3347 38.0207 51.8542C38.6087 49.8742 40.4344 44.5906 43.1556 44.5906C45.8769 44.5906 47.7026 49.8731 48.2906 51.8532Z" fill="#583FBC"/>
<path d="M34.8478 39.3472C34.4376 38.1746 34.2758 36.8928 34.2982 35.6551C34.3095 35.0174 34.3781 34.3654 34.6559 33.7917C35.1039 32.8671 36.0405 32.2653 37.0125 31.9317C39.0366 31.2374 41.416 31.5339 43.1561 32.8025C43.2458 32.7368 43.3543 32.6642 43.4732 32.5894C43.491 32.578 43.5115 32.5665 43.5304 32.5551C43.9658 32.2871 44.4321 32.0762 44.9161 31.9139C44.9572 31.9002 44.9915 31.8842 45.0337 31.8711C45.8578 30.0808 46.2921 28.0653 46.2921 26.0236V24.5715C46.2921 20.064 40.2623 20.0005 40.0057 20C36.4296 20 34.2918 21.9595 34.1382 22.1051C33.7587 22.5566 31.021 25.7144 28.5774 25.7144C28.262 25.7144 28.006 25.459 28.006 25.1429C28.006 24.8269 28.262 24.5715 28.5774 24.5715C30.0095 24.5715 31.9295 22.8246 32.9032 21.7749C32.1095 21.1754 30.2009 20 27.4346 20C27.1786 20.0006 21.1487 20.064 21.1487 24.5715V26.0235C21.1487 28.7515 21.8864 31.3304 23.2814 33.4796C23.378 33.6287 23.4785 33.7773 23.5831 33.9259C24.53 35.2699 24.8191 36.9328 24.3768 38.4871C23.9471 39.9974 23.4345 42.1797 23.4345 43.9998C23.4317 44.0792 23.2277 49.4998 25.5637 51.9645C25.5941 51.9959 25.6323 52.0068 25.6775 51.9959C25.7055 51.9884 25.7547 51.9679 25.7718 51.9061C26.5558 49.113 29.4456 39.9996 33.7205 39.9996C34.2525 39.9996 34.781 40.1402 35.3039 40.4203C35.2891 40.3905 35.2787 40.358 35.2645 40.3283C35.1262 40.0477 35 39.7609 34.8914 39.4654C34.8759 39.4267 34.8615 39.3872 34.8478 39.3472Z" fill="#583FBC"/>
</g>
<defs>
<clipPath id="clip0_704_304">
<rect width="32" height="32" fill="white" transform="translate(20 20)"/>
</clipPath>
</defs>
</svg>
